<svg xmlns:dc="http://purl.org/dc/elements/1.1/" xmlns:cc="http://creativecommons.org/ns#" xmlns:rdf="http://www.w3.org/1999/02/22-rdf-syntax-ns#" xmlns:svg="http://www.w3.org/2000/svg" xmlns="http://www.w3.org/2000/svg" xmlns:sodipodi="http://sodipodi.sourceforge.net/DTD/sodipodi-0.dtd" xmlns:inkscape="http://www.inkscape.org/namespaces/inkscape" version="1.1" x="0px" y="0px" viewBox="0 0 100 125"><g transform="translate(0,-952.36218)"><path style="text-indent:0;text-transform:none;direction:ltr;block-progression:tb;baseline-shift:baseline;color:#000000;enable-background:accumulate;" d="m 50,957.36217 c -3.906,0 -7.1634,2.5155 -8.4062,6 l -8.5938,0 0,4 -16,0 0,80.00003 66,0 0,-80.00003 -16,0 0,-4 -8.5938,0 c -1.2429,-3.4845 -4.5002,-6 -8.4062,-6 z m 0,2 c 4,0 7,4 7,6 l 8,0 0,8 -30,0 0,-8 8,0 c 0,-2 3,-6 7,-6 z m -31,10 14,0 0,6 34,0 0,-6 14,0 0,76.00003 -62,0 0,-76.00003 z m 22,12 c -2.2091,0 -4,1.7909 -4,4 0,2.2092 1.7909,4.00003 4,4.00003 2.2091,0 4,-1.79083 4,-4.00003 0,-2.2091 -1.7909,-4 -4,-4 z m 0,9.00003 c -3.6923,0 -8,1.4 -8,7 l 16,0 c 0,-5.6 -4.3077,-7 -8,-7 z m 12,1 0,2 17,0 0,-2 -17,0 z m -23,14 0,2 40,0 0,-2 -40,0 z m 0,14 0,2 40,0 0,-2 -40,0 z m 0,14 0,2 40,0 0,-2 -40,0 z" fill="#000000" fill-opacity="1" stroke="none" marker="none" visibility="visible" display="inline" overflow="visible"/></g><text x="0" y="115" fill="#000000" font-size="5px" font-weight="bold" font-family="'Helvetica Neue', Helvetica, Arial-Unicode, Arial, Sans-serif">Created by unlimicon</text><text x="0" y="120" fill="#000000" font-size="5px" font-weight="bold" font-family="'Helvetica Neue', Helvetica, Arial-Unicode, Arial, Sans-serif">from the Noun Project</text></svg>